PathFileType	4	(X/Y/Z)	/Users/itak/Documents/Research/Walk-IL/dataset/trc/00110_00007.trc
DataRate	CameraRate	NumFrames	NumMarkers	Units	OrigDataRate	OrigDataStartFrame	OrigNumFrames
100.000000	100.000000	4	53	mm	100.000000	148	594
Frame#	Time	RPSI			LPSI			L3			STRN			T10			C7			CLAV			RBAK			LBAK			LSHO			LUPA			LAEL			LAOL			LWTS			LWPS			LFRA			LIFD			LHPS			LHTS			RSHO			RUPA			RAEL			RAOL			RWTS			RWPS			RFRA			RIFD			RHTS			RHPS			RBHD			LFHD			RFHD			LBHD			LHIP			RHIP			RASI			LASI			LKNE			LTHI			LANK			LTIP			LTOE			LMT1			LMT5			LHEE			RKNE			RTHI			RANK			RTIP			RTOE			RMT1			RMT5			RHEE			
		X1	Y1	Z1	X2	Y2	Z2	X3	Y3	Z3	X4	Y4	Z4	X5	Y5	Z5	X6	Y6	Z6	X7	Y7	Z7	X8	Y8	Z8	X9	Y9	Z9	X10	Y10	Z10	X11	Y11	Z11	X12	Y12	Z12	X13	Y13	Z13	X14	Y14	Z14	X15	Y15	Z15	X16	Y16	Z16	X17	Y17	Z17	X18	Y18	Z18	X19	Y19	Z19	X20	Y20	Z20	X21	Y21	Z21	X22	Y22	Z22	X23	Y23	Z23	X24	Y24	Z24	X25	Y25	Z25	X26	Y26	Z26	X27	Y27	Z27	X28	Y28	Z28	X29	Y29	Z29	X30	Y30	Z30	X31	Y31	Z31	X32	Y32	Z32	X33	Y33	Z33	X34	Y34	Z34	X35	Y35	Z35	X36	Y36	Z36	X37	Y37	Z37	X38	Y38	Z38	X39	Y39	Z39	X40	Y40	Z40	X41	Y41	Z41	X42	Y42	Z42	X43	Y43	Z43	X44	Y44	Z44	X45	Y45	Z45	X46	Y46	Z46	X47	Y47	Z47	X48	Y48	Z48	X49	Y49	Z49	X50	Y50	Z50	X51	Y51	Z51	X52	Y52	Z52	X53	Y53	Z53	

149	1.48	629.4686279296875	1125.224731445312	-254.9635925292969	633.1848754882812	1126.313110351562	-390.2061157226562	625.6104125976562	1162.764770507812	-324.960693359375	848.4459228515625	1363.975830078125	-319.3464965820312	590.5465087890625	1314.5732421875	-326.2557983398438	630.7859497070312	1606.74853515625	-340.5967102050781	815.3706665039062	1499.770385742188	-324.7234191894531	570.9386596679688	1424.48828125	-251.8900909423828	627.0028686523438	1587.444458007812	-442.1175842285156	717.2182006835938	1573.290405273438	-506.0054626464844	700.9878540039062	1443.11572265625	-579.5618286132812	721.1126708984375	1223.081787109375	-599.3242797851562	647.6040649414062	1211.034423828125	-552.9617919921875	818.1400756835938	968.6342163085938	-538.6488647460938	742.1105346679688	940.1085205078125	-577.629150390625	739.85986328125	1107.026489257812	-599.6791381835938	827.0033569335938	775.29345703125	-511.4786071777344	771.9354248046875	865.5381469726562	-573.540283203125	836.0472412109375	879.6342163085938	-546.6091918945312	682.9042358398438	1588.758911132812	-156.1825561523438	663.1962280273438	1516.65087890625	-91.43596649169922	643.4002075195312	1221.957397460938	-70.54042053222656	639.2648315429688	1221.52587890625	-167.0515289306641	792.0130004882812	982.3359985351562	-85.80625915527344	718.2720336914062	963.0713500976562	-55.09451675415039	667.8367919921875	1148.160034179688	-55.51403045654297	823.0772705078125	788.7338256835938	-102.5731353759766	824.3880004882812	875.0073852539062	-80.95637512207031	758.3900756835938	865.039794921875	-50.91804504394531	659.8775024414062	1767.30078125	-254.1013336181641	809.0375366210938	1848.453491210938	-394.5728454589844	813.1344604492188	1855.118896484375	-264.85986328125	645.4611206054688	1763.486450195312	-388.8599243164062	728.688720703125	1039.058715820312	-494.2179870605469	754.01171875	1031.988647460938	-133.7161712646484	835.1857299804688	1107.381713867188	-185.6387786865234	837.1656494140625	1106.636352539062	-451.8247985839844	781.464111328125	537.59521484375	-469.4590759277344	751.5177612304688	682.7442626953125	-493.0432739257812	639.4165649414062	36.19913864135742	-465.6925048828125	664.7431640625	292.8914184570312	-495.4777221679688	872.7940673828125	35.00288009643555	-417.8193664550781	792.8087768554688	41.6639518737793	-381.165771484375	762.8369140625	30.68508529663086	-497.6755065917969	573.1199340820312	40.64774703979492	-401.9150390625	752.6990356445312	540.34814453125	-176.7612609863281	779.3383178710938	824.40966796875	-147.6575622558594	656.9188842773438	30.0549144744873	-201.5011596679688	729.0845336914062	407.1548461914062	-168.7781219482422	887.8880615234375	39.25225067138672	-260.5163269042969	824.82568359375	29.01420211791992	-300.5908813476562	791.960693359375	38.24957275390625	-183.4951324462891	598.325439453125	32.79644012451172	-248.1771850585938	
150	1.49	628.095703125	1125.392333984375	-253.9233703613281	631.5186157226562	1126.648315429688	-389.1907653808594	624.1275634765625	1163.251953125	-323.8448791503906	847.39990234375	1364.117309570312	-318.3291015625	589.542724609375	1315.097045898438	-324.9343566894531	630.1447143554688	1607.238525390625	-339.3718872070312	814.5750732421875	1499.982299804688	-323.6700439453125	570.0634765625	1425.042846679688	-250.6486358642578	626.2357788085938	1587.935180664062	-440.886962890625	716.3956298828125	1573.6484375	-504.8607788085938	700.0109252929688	1443.513305664062	-578.4085083007812	719.9976196289062	1223.4716796875	-598.2662963867188	646.5745239257812	1211.391845703125	-551.7870483398438	817.2005004882812	969.0288696289062	-537.9600219726562	741.0516357421875	940.5121459960938	-576.772705078125	738.792236328125	1107.449096679688	-598.7274780273438	826.0641479492188	775.6399536132812	-510.8817443847656	770.9105834960938	865.9527587890625	-572.782958984375	835.0484619140625	879.9852294921875	-545.9737548828125	682.397705078125	1589.141357421875	-155.0014801025391	662.6915283203125	1517.031127929688	-90.23220062255859	642.572265625	1222.36572265625	-69.37154388427734	638.2635498046875	1221.946533203125	-165.8562316894531	790.7128295898438	982.455322265625	-84.89070892333984	717.0010375976562	963.3569946289062	-54.03630828857422	666.9562377929688	1148.5361328125	-54.36971282958984	821.2853393554688	788.7723999023438	-101.7009582519531	822.8583984375	875.0477905273438	-80.07540893554688	756.9518432617188	865.251708984375	-49.87859344482422	659.1571044921875	1767.612182617188	-253.0255737304688	808.0616455078125	1848.867309570312	-393.7091979980469	812.3081665039062	1855.650268554688	-264.0165100097656	644.6021728515625	1763.676879882812	-387.7527770996094	726.9100341796875	1039.450927734375	-493.5198364257812	752.5740356445312	1032.041137695312	-132.8146209716797	833.7877807617188	1107.383666992188	-184.8149871826172	835.38232421875	1106.895629882812	-450.9511413574219	782.5769653320312	538.052001953125	-468.9653015136719	751.6763916015625	683.0296020507812	-492.399169921875	639.5659790039062	36.55363082885742	-465.6060485839844	665.3819580078125	293.3753662109375	-495.0448608398438	872.70654296875	35.03088760375977	-417.9600830078125	792.8865356445312	41.7786979675293	-381.2450256347656	762.8671875	30.67815208435059	-497.6681823730469	573.3046875	41.24185562133789	-401.7856750488281	752.4995727539062	540.3429565429688	-176.2546691894531	777.935302734375	824.1888427734375	-146.8675384521484	657.0169677734375	30.31557083129883	-201.7850646972656	729.2129516601562	407.000732421875	-168.4979553222656	888.1234130859375	39.08232498168945	-260.5030517578125	824.9669799804688	28.92978668212891	-300.6287231445312	792.0256958007812	38.26880645751953	-183.5660400390625	598.3704833984375	32.99461364746094	-248.4305114746094	
151	1.5	626.6387329101562	1125.59033203125	-252.84765625	629.7034912109375	1127.040771484375	-388.1431884765625	622.519775390625	1163.790161132812	-322.6854858398438	846.2909545898438	1364.292602539062	-317.3234252929688	588.4935302734375	1315.684448242188	-323.5558776855469	629.45654296875	1607.7744140625	-338.123291015625	813.7380981445312	1500.227661132812	-322.6080017089844	569.1614379882812	1425.658569335938	-249.3638763427734	625.4186401367188	1588.473022460938	-439.6186828613281	715.5162963867188	1574.064086914062	-503.6982116699219	698.9572143554688	1443.96142578125	-577.2276000976562	718.81884765625	1223.9130859375	-597.1715087890625	645.4826049804688	1211.7998046875	-550.5531616210938	816.1822509765625	969.4613647460938	-537.2251586914062	739.9172973632812	940.95947265625	-575.8573608398438	737.6287841796875	1107.914672851562	-597.739990234375	825.0733642578125	776.0445556640625	-510.2308044433594	769.8062133789062	866.4093017578125	-571.9721069335938	833.9815063476562	880.3861694335938	-545.300048828125	681.8842163085938	1589.584228515625	-153.7958526611328	662.1817626953125	1517.465454101562	-88.99616241455078	641.7315063476562	1222.83154296875	-68.17188262939453	637.263427734375	1222.41748046875	-164.6202850341797	789.3572998046875	982.6104125976562	-83.94109344482422	715.6950073242188	963.6932983398438	-52.93364334106445	666.0432739257812	1148.968383789062	-53.20196533203125	819.3998413085938	788.8382568359375	-100.7831954956055	821.2582397460938	875.1234741210938	-79.15174865722656	755.4308471679688	865.5057373046875	-48.80223083496094	658.3855590820312	1767.973876953125	-251.9347686767578	807.0381469726562	1849.321899414062	-392.8269348144531	811.4378051757812	1856.218017578125	-263.1514892578125	643.6885986328125	1763.923217773438	-386.6318664550781	724.96728515625	1039.9072265625	-492.8160705566406	751.1065673828125	1032.105712890625	-131.9059143066406	832.3165283203125	1107.394775390625	-184.0354156494141	833.4490356445312	1107.196044921875	-450.1203918457031	783.7257080078125	538.5723876953125	-468.5397338867188	751.786376953125	683.3840942382812	-491.8199157714844	639.7071533203125	36.93173599243164	-465.5061950683594	666.0214233398438	293.9442138671875	-494.6027221679688	872.5842895507812	35.09950256347656	-418.1786499023438	792.9844360351562	41.96927642822266	-381.3600463867188	762.9085083007812	30.6671142578125	-497.654296875	573.499755859375	41.90217590332031	-401.6081848144531	752.328369140625	540.3388671875	-175.7653350830078	776.4960327148438	823.9553833007812	-146.1040954589844	657.1159057617188	30.55372428894043	-202.0483093261719	729.3836059570312	406.8475036621094	-168.2218780517578	888.3540649414062	38.92005920410156	-260.4788208007812	825.1004028320312	28.84368896484375	-300.6676025390625	792.0914916992188	38.28318405151367	-183.6358337402344	598.4171142578125	33.18810653686523	-248.6649169921875	
152	1.51	625.0848999023438	1125.807250976562	-251.7365112304688	627.7333374023438	1127.481323242188	-387.0647277832031	620.7742309570312	1164.373657226562	-321.4840087890625	845.1183471679688	1364.499145507812	-316.3381042480469	587.374267578125	1316.330810546875	-322.1318969726562	628.7255249023438	1608.348876953125	-336.8512573242188	812.8562622070312	1500.501098632812	-321.5393676757812	568.2376098632812	1426.3349609375	-248.0330657958984	624.5526123046875	1589.052856445312	-438.3179016113281	714.579833984375	1574.531372070312	-502.519287109375	697.825927734375	1444.452270507812	-576.0196533203125	717.5706787109375	1224.402099609375	-596.0432739257812	644.3303833007812	1212.259765625	-549.2638549804688	815.0838623046875	969.9302368164062	-536.443603515625	738.7078247070312	941.446533203125	-574.882080078125	736.3682861328125	1108.416015625	-596.7154541015625	824.026123046875	776.4981079101562	-509.5208435058594	768.621337890625	866.8994750976562	-571.1052856445312	832.8523559570312	880.8396606445312	-544.587646484375	681.3665771484375	1590.083374023438	-152.5716705322266	661.6673583984375	1517.952758789062	-87.73284912109375	640.8666381835938	1223.35400390625	-66.94161224365234	636.2511596679688	1222.946533203125	-163.3481292724609	787.944580078125	982.8096923828125	-82.96037292480469	714.3483276367188	964.0819091796875	-51.79343032836914	665.08203125	1149.457153320312	-52.01396560668945	817.4420166015625	788.94482421875	-99.82511901855469	819.594970703125	875.2450561523438	-78.19223785400391	753.8272094726562	865.80419921875	-47.70235443115234	657.56494140625	1768.374877929688	-250.8293609619141	805.9671020507812	1849.808349609375	-391.9331359863281	810.515869140625	1856.813110351562	-262.2689208984375	642.7188110351562	1764.209838867188	-385.5007934570312	722.8790283203125	1040.427856445312	-492.0968322753906	749.6326293945312	1032.183837890625	-130.9853515625	830.7731323242188	1107.417602539062	-183.3096008300781	831.3720703125	1107.545776367188	-449.3397216796875	784.8944702148438	539.1436767578125	-468.2020874023438	751.8362426757812	683.8065185546875	-491.3220520019531	639.829345703125	37.31224822998047	-465.3969421386719	666.6456909179688	294.5840759277344	-494.1610717773438	872.4219360351562	35.22880172729492	-418.4933471679688	793.0980834960938	42.26289367675781	-381.5189819335938	762.9661865234375	30.65102767944336	-497.6341247558594	573.7003784179688	42.60902786254883	-401.3868408203125	752.19140625	540.3358154296875	-175.2915191650391	775.0330810546875	823.7044677734375	-145.3690490722656	657.2150268554688	30.7523021697998	-202.2672271728516	729.5878295898438	406.6986389160156	-167.9481353759766	888.5718994140625	38.76869201660156	-260.4490051269531	825.2196655273438	28.75890731811523	-300.7062377929688	792.1572265625	38.29195785522461	-183.6967926025391	598.4694213867188	33.36604690551758	-248.8557739257812	
